<svg version="1" xmlns="http://www.w3.org/2000/svg" width="281.333" height="281.333" viewBox="0 0 211.000000 211.000000"><path d="M94.1 1.1c-34.2 4-64.7 26.6-78.2 58-4.8 11-6.7 18.6-7.8 30.2-1.6 17.2 1.9 36.8 9.4 52.1 3.5 6.9 3.5 7 2 11.9-3.1 10.5-1.5 24.5 4.1 34.8 8.2 15 22 22.3 42.5 22.2 14.2-.1 18.9-3 18.9-11.7v-3.3l15.8.5c17.7.5 24.8-.5 39.3-5.8 23.8-8.6 45.6-29.4 55.4-52.9 4.4-10.5 6.3-18 7.4-29.1 5.3-53.8-33.2-100.8-87.4-107-10-1.1-10.9-1.1-21.4.1zm20 7.9c39.1 3.8 71.4 32.8 79.6 71.5 1.9 9.1 1.9 27.1 0 36-7.5 35.2-34.8 62.5-70 70.1-7.5 1.7-25.9 2.2-31.3 1-4.1-.9-4.9-3.8-2.4-8.6 1-2 1.7-4.6 1.4-5.7-.5-1.7.4-2.1 7.5-3.7 10.8-2.3 20-7.1 22.5-11.7 1.7-3.1 1.8-3.8.5-6.4-.8-1.7-3.1-3.8-5.3-4.9-3.7-1.8-4.6-1.9-12-.7-26.4 4.1-40.9 5-49.1 3.1-5.9-1.3-6.8-3.1-6-12.1.6-6.4.4-8.4-1.2-12-2.2-4.9-8-10.5-11.8-11.5-4.2-1-9.2.5-11.6 3.4-2.2 2.8-2.2 3.8-.3 16.2.9 5.8-.7 4.4-3.5-3.3-6.9-18.9-7.3-40.4-1-59.2 3.6-10.8 8-18.8 15.3-28.2 4.4-5.6 6.6-7.5 11.3-9.6 10.7-4.8 20.1-5.3 34.5-2.1 2.3.5 2.8.2 3.4-2.1.4-1.8.2-3-.7-3.6-2.6-1.6-14.6-3.2-20.4-2.7-5.7.5-5.7.5-3.4-1.3 1.3-1 5.6-3.2 9.5-4.9 11.3-4.7 16.7-5.9 33.9-7.8.6-.1 5.3.3 10.6.8zM37.5 118.9c7.2 3.3 8 4.9 8.1 17.2.1 6.9.6 11.4 1.4 12.3.6.8 3.3 2.3 5.8 3.3 6.7 2.6 25.8 2.2 41.7-.8 6.6-1.2 13.2-2.2 14.8-2.2 5.7 0 8.9 7 5 10.9-3.2 3.2-12.2 6.5-20.8 7.7-7 .9-8.4 1.4-7.9 2.7 1.7 3.8 1.5 7.6-.4 9.3-1.8 1.7-1.9 2.2-.7 5 1.4 3.5.7 6.4-1.9 8.6-.9.8-1.6 2.9-1.6 5.1 0 2.5-.7 4.3-2.1 5.6-4.5 4-24.8 2.3-36.2-3-6.3-3-14-10.8-16.7-16.9-4.6-10.3-4.4-23.9.5-35.9 2.8-6.9 3.2-13.6 1.3-21.9-1.1-4.9-1.1-5.2 1.1-7 2.9-2.3 3.6-2.3 8.6 0z"/><path d="M136.3 34.5c-2.9.8-7.1 2.4-9.3 3.5-3.7 1.9-3.9 2.2-2.8 4.5.6 1.4 1.4 2.5 1.8 2.5.4 0 3.5-1.2 7.1-2.6 8.1-3.4 20.8-4.2 28.9-2 5.8 1.5 6.6 1.3 7.2-1.9.5-3.3-4.4-4.9-16.7-5.2-7.4-.2-12.7.2-16.2 1.2zM55.5 49c-9 1.3-11.2 2.4-13.7 7.2-3.2 6.1-3.3 19.4 0 25.5 5.3 10 14.5 15.6 25.6 15.7 11.3 0 20.4-5.5 25.8-15.7 3.2-6 3.2-19.4.1-25.3-2-3.8-2.8-4.3-8.5-5.7-8.1-2-21.6-2.8-29.3-1.7zm26 5.4c6.8 1.6 8 2.9 9.6 10.1 1.7 7.8-.8 15.5-6.9 21.5-17.7 17.2-46.6.1-39.8-23.5 1.7-5.7 3.1-7.1 3.3-3.3.8 9.7 11.3 14.9 19.4 9.5 4.5-3 6.1-6.3 5.6-11.5-.5-4.9-.4-4.9 8.8-2.8zM131.3 49c-9.3 1.3-11.4 2.7-14.1 9-4.4 10.7-1.8 23.4 6.4 31.4 8.2 8 21.8 10.5 31.5 5.8 5.8-2.8 11.2-8 14.1-13.5 3.2-6 3.2-19.4.1-25.3-2-3.8-2.8-4.3-8.5-5.7-8.1-2-21.6-2.8-29.5-1.7zm26.2 5.4c6.8 1.6 8 2.9 9.6 10.1 3.2 14.2-8.7 28.5-23.6 28.5-10.3 0-20-7.2-22.9-16.9-2-6.7-2-7.5-.1-13.9 1.7-5.6 3.5-6.9 3.5-2.5.2 9.2 11.2 14.3 19.1 9 4.5-3 6.1-6.3 5.6-11.5-.5-4.9-.4-4.9 8.8-2.8zM86.2 114.1c-4 .4-7.9 1.2-8.7 1.9-2 1.7-1.9 5.3.3 8 1.7 2.1 2.1 2.1 8.2 1 10.4-1.9 23.4.4 34 6.1 5.4 2.9 5.5 2.9 8 1.1 1.5-1.2 2.6-3.1 2.8-4.9.3-2.8-.1-3.2-7-6.6-12.1-6-23.1-7.9-37.6-6.6z"/></svg>